<?xml version="1.0" encoding="UTF-8" standalone="no"?>
<!-- Generator: Adobe Illustrator 22.0.1, SVG Export Plug-In . SVG Version: 6.00 Build 0)  -->

<svg
   version="1.1"
   id="Layer_1"
   x="0px"
   y="0px"
   viewBox="0 0 340 55"
   style="enable-background:new 0 0 340 55;"
   xml:space="preserve"
   sodipodi:docname="logo_bicsp alterado.svg"
   inkscape:version="1.2.1 (9c6d41e410, 2022-07-14)"
   xmlns:inkscape="http://www.inkscape.org/namespaces/inkscape"
   xmlns:sodipodi="http://sodipodi.sourceforge.net/DTD/sodipodi-0.dtd"
   xmlns="http://www.w3.org/2000/svg"
   xmlns:svg="http://www.w3.org/2000/svg"><defs
   id="defs254" /><sodipodi:namedview
   id="namedview252"
   pagecolor="#ffffff"
   bordercolor="#000000"
   borderopacity="0.25"
   inkscape:showpageshadow="2"
   inkscape:pageopacity="0.0"
   inkscape:pagecheckerboard="0"
   inkscape:deskcolor="#d1d1d1"
   showgrid="false"
   inkscape:zoom="4.7794118"
   inkscape:cx="169.89538"
   inkscape:cy="27.513846"
   inkscape:window-width="1920"
   inkscape:window-height="1001"
   inkscape:window-x="-9"
   inkscape:window-y="-9"
   inkscape:window-maximized="1"
   inkscape:current-layer="g120" />
<style
   type="text/css"
   id="style2">
	.st0{fill:#504F51;}
	.st1{fill:#666666;}
	.st2{fill:url(#SVGID_1_);}
	.st3{fill:url(#SVGID_2_);}
	.st4{fill:url(#SVGID_3_);}
	.st5{fill:url(#SVGID_4_);}
	.st6{fill:url(#SVGID_5_);}
</style>
<g
   id="g249">
	<g
   id="g120">
		<g
   id="g10">
			<g
   id="g8">
				<g
   id="g6">
					<polygon
   class="st0"
   points="65.1,52.5 64.4,52.5 64.4,2.5 65.1,2.5      "
   id="polygon4"
   style="fill:#f9f9f9" />
				</g>
			</g>
		</g>
		<g
   id="g104"
   style="fill:#f9f9f9">
			<path
   class="st1"
   d="M78.2,40.3h2.6c1.8,0,2.5,1,2.5,2.4c0,0.9-0.5,1.8-1.5,2v0c1.2,0.2,1.8,1.1,1.8,2.3c0,1.6-1.1,2.6-2.8,2.6     h-2.6V40.3z M79,44.4h1.3c1.4,0,2.1-0.6,2.1-1.7c0-1.3-0.6-1.7-2-1.7H79V44.4z M79,49h1.6c1.5,0,2.2-0.7,2.2-1.9     c0-1.3-0.7-1.9-2.2-1.9H79V49z"
   id="path12"
   style="fill:#f9f9f9" />
			<path
   class="st1"
   d="M84.8,40.3h0.8v1.3h-0.8V40.3z M84.8,42.7h0.8v7h-0.8V42.7z"
   id="path14"
   style="fill:#f9f9f9" />
			<path
   class="st1"
   d="M87.3,40.3h0.8v9.4h-0.8V40.3z"
   id="path16"
   style="fill:#f9f9f9" />
			<path
   class="st1"
   d="M89.6,40.3h0.8v3.4h0c0.2-0.7,0.9-1.1,1.7-1.1c1.1,0,1.8,0.6,1.8,1.9v5.3h-0.8v-5.1c0-1-0.4-1.4-1.2-1.4     c-0.9,0-1.5,0.7-1.5,1.8v4.7h-0.8V40.3z"
   id="path18"
   style="fill:#f9f9f9" />
			<path
   class="st1"
   d="M99.8,47.4c-0.1,1.5-0.9,2.5-2.3,2.5c-1.5,0-2.3-1-2.3-3.7c0-2.4,0.9-3.7,2.4-3.7c1.6,0,2.3,1.1,2.3,3.4v0.3     H96v0.3c0,2,0.7,2.6,1.5,2.6c0.8,0,1.3-0.6,1.5-1.8H99.8z M99,45.6c0-1.7-0.5-2.4-1.5-2.4c-1,0-1.5,0.6-1.5,2.4H99z"
   id="path20"
   style="fill:#f9f9f9" />
			<path
   class="st1"
   d="M101.4,43.3h-1v-0.7h1v-1.9h0.8v1.9h1.2v0.7h-1.2v5c0,0.6,0.2,0.7,0.8,0.7c0.2,0,0.3,0,0.5-0.1v0.7     c-0.1,0.1-0.3,0.1-0.6,0.1c-1.1,0-1.5-0.3-1.5-1.2V43.3z"
   id="path22"
   style="fill:#f9f9f9" />
			<path
   class="st1"
   d="M108.6,47.4c-0.1,1.5-0.9,2.5-2.3,2.5c-1.5,0-2.3-1-2.3-3.7c0-2.4,0.9-3.7,2.4-3.7c1.6,0,2.3,1.1,2.3,3.4     v0.3h-3.8v0.3c0,2,0.7,2.6,1.5,2.6c0.8,0,1.3-0.6,1.5-1.8H108.6z M107.8,45.6c0-1.7-0.5-2.4-1.5-2.4c-1,0-1.5,0.6-1.5,2.4H107.8z     "
   id="path24"
   style="fill:#f9f9f9" />
			<path
   class="st1"
   d="M116.7,48.5L116.7,48.5c-0.2,0.8-0.9,1.3-1.7,1.3c-1.5,0-2.2-1.2-2.2-3.7c0-2.4,0.7-3.7,2.2-3.7     c0.9,0,1.5,0.5,1.6,1.2h0v-3.5h0.8v9.4h-0.7V48.5z M115.1,49.2c0.8,0,1.5-0.4,1.5-3c0-2.6-0.7-3-1.5-3c-0.8,0-1.5,0.4-1.5,3     C113.6,48.8,114.3,49.2,115.1,49.2z"
   id="path26"
   style="fill:#f9f9f9" />
			<path
   class="st1"
   d="M123.2,47.4c-0.1,1.5-0.9,2.5-2.3,2.5c-1.5,0-2.3-1-2.3-3.7c0-2.4,0.9-3.7,2.4-3.7c1.6,0,2.3,1.1,2.3,3.4     v0.3h-3.8v0.3c0,2,0.7,2.6,1.5,2.6c0.8,0,1.3-0.6,1.5-1.8H123.2z M122.4,45.6c0-1.7-0.5-2.4-1.5-2.4c-1,0-1.5,0.6-1.5,2.4H122.4z     "
   id="path28"
   style="fill:#f9f9f9" />
			<path
   class="st1"
   d="M127.7,40.3h0.8v9.4h-0.8V40.3z"
   id="path30"
   style="fill:#f9f9f9" />
			<path
   class="st1"
   d="M133.8,48.5L133.8,48.5c-0.2,0.8-0.9,1.3-1.7,1.3c-1.5,0-2.2-1.2-2.2-3.7c0-2.4,0.7-3.7,2.2-3.7     c0.9,0,1.5,0.5,1.6,1.2h0v-3.5h0.8v9.4h-0.7V48.5z M132.2,49.2c0.8,0,1.5-0.4,1.5-3c0-2.6-0.7-3-1.5-3c-0.8,0-1.5,0.4-1.5,3     C130.6,48.8,131.4,49.2,132.2,49.2z"
   id="path32"
   style="fill:#f9f9f9" />
			<path
   class="st1"
   d="M140.2,47.4c-0.1,1.5-0.9,2.5-2.3,2.5c-1.5,0-2.3-1-2.3-3.7c0-2.4,0.9-3.7,2.4-3.7c1.6,0,2.3,1.1,2.3,3.4     v0.3h-3.8v0.3c0,2,0.7,2.6,1.5,2.6c0.8,0,1.3-0.6,1.5-1.8H140.2z M139.5,45.6c0-1.7-0.5-2.4-1.5-2.4c-1,0-1.5,0.6-1.5,2.4H139.5z     "
   id="path34"
   style="fill:#f9f9f9" />
			<path
   class="st1"
   d="M141.6,42.7h0.7v1h0c0.4-0.8,1.1-1.1,1.8-1.1c1.1,0,1.8,0.6,1.8,1.9v5.3h-0.8v-5.1c0-1-0.4-1.4-1.2-1.4     c-0.9,0-1.5,0.7-1.5,1.8v4.7h-0.8V42.7z"
   id="path36"
   style="fill:#f9f9f9" />
			<path
   class="st1"
   d="M147.7,43.3h-1v-0.7h1v-1.9h0.8v1.9h1.2v0.7h-1.2v5c0,0.6,0.2,0.7,0.8,0.7c0.2,0,0.3,0,0.5-0.1v0.7     c-0.1,0.1-0.3,0.1-0.6,0.1c-1.1,0-1.5-0.3-1.5-1.2V43.3z"
   id="path38"
   style="fill:#f9f9f9" />
			<path
   class="st1"
   d="M150.6,40.3h0.8v1.3h-0.8V40.3z M150.6,42.7h0.8v7h-0.8V42.7z"
   id="path40"
   style="fill:#f9f9f9" />
			<path
   class="st1"
   d="M156.7,48.5L156.7,48.5c-0.2,0.8-0.9,1.3-1.7,1.3c-1.5,0-2.2-1.2-2.2-3.7c0-2.4,0.7-3.7,2.2-3.7     c0.9,0,1.5,0.5,1.6,1.2h0v-3.5h0.8v9.4h-0.7V48.5z M155.1,49.2c0.8,0,1.5-0.4,1.5-3c0-2.6-0.7-3-1.5-3c-0.8,0-1.5,0.4-1.5,3     C153.6,48.8,154.3,49.2,155.1,49.2z"
   id="path42"
   style="fill:#f9f9f9" />
			<path
   class="st1"
   d="M158.7,44.8c0-1.4,0.7-2.2,2.2-2.2c1.4,0,2,0.8,2,1.9v4.1c0,0.4,0.1,0.6,0.4,0.6h0.2v0.6     c-0.1,0.1-0.3,0.1-0.4,0.1c-0.6,0-1-0.1-1-0.9v-0.2h0c-0.3,0.9-1,1.2-1.8,1.2c-1.2,0-1.8-0.8-1.8-2c0-0.9,0.4-1.7,1.4-1.9     l1.5-0.4c0.6-0.2,0.7-0.3,0.7-1.1c0-0.9-0.5-1.2-1.2-1.2c-0.9,0-1.3,0.6-1.3,1.6H158.7z M162,45.7L162,45.7     c-0.1,0.2-0.6,0.4-0.9,0.5l-0.7,0.2c-0.8,0.2-1.2,0.6-1.2,1.4c0,0.8,0.4,1.4,1.1,1.4c1,0,1.6-0.7,1.6-2V45.7z"
   id="path44"
   style="fill:#f9f9f9" />
			<path
   class="st1"
   d="M168.1,48.5L168.1,48.5c-0.2,0.8-0.9,1.3-1.7,1.3c-1.5,0-2.2-1.2-2.2-3.7c0-2.4,0.7-3.7,2.2-3.7     c0.9,0,1.5,0.5,1.6,1.2h0v-3.5h0.8v9.4h-0.7V48.5z M166.5,49.2c0.8,0,1.5-0.4,1.5-3c0-2.6-0.7-3-1.5-3c-0.8,0-1.5,0.4-1.5,3     C165,48.8,165.8,49.2,166.5,49.2z"
   id="path46"
   style="fill:#f9f9f9" />
			<path
   class="st1"
   d="M174.6,47.4c-0.1,1.5-0.9,2.5-2.3,2.5c-1.5,0-2.3-1-2.3-3.7c0-2.4,0.9-3.7,2.4-3.7c1.6,0,2.3,1.1,2.3,3.4     v0.3h-3.8v0.3c0,2,0.7,2.6,1.5,2.6c0.8,0,1.3-0.6,1.5-1.8H174.6z M173.8,45.6c0-1.7-0.5-2.4-1.5-2.4c-1,0-1.5,0.6-1.5,2.4H173.8z     "
   id="path48"
   style="fill:#f9f9f9" />
			<path
   class="st1"
   d="M182.8,48.5L182.8,48.5c-0.2,0.8-0.9,1.3-1.7,1.3c-1.5,0-2.2-1.2-2.2-3.7c0-2.4,0.7-3.7,2.2-3.7     c0.9,0,1.5,0.5,1.6,1.2h0v-3.5h0.8v9.4h-0.7V48.5z M181.2,49.2c0.8,0,1.5-0.4,1.5-3c0-2.6-0.7-3-1.5-3c-0.8,0-1.5,0.4-1.5,3     C179.6,48.8,180.4,49.2,181.2,49.2z"
   id="path50"
   style="fill:#f9f9f9" />
			<path
   class="st1"
   d="M187,42.5c1.5,0,2.4,1.2,2.4,3.7c0,2.4-0.9,3.7-2.4,3.7s-2.4-1.2-2.4-3.7C184.6,43.8,185.4,42.5,187,42.5z      M187,49.2c0.9,0,1.6-0.8,1.6-3c0-2.2-0.7-3-1.6-3s-1.6,0.8-1.6,3C185.4,48.4,186.1,49.2,187,49.2z"
   id="path52"
   style="fill:#f9f9f9" />
			<path
   class="st1"
   d="M191.6,46.2c-1-0.4-1.3-1-1.3-1.7c0-1.4,0.9-2,2.1-2c1.3,0,1.9,0.7,1.9,2v0.2h-0.8v-0.2     c0-0.9-0.4-1.3-1.1-1.3c-0.9,0-1.3,0.5-1.3,1.2c0,0.5,0.2,0.9,0.9,1.2l1.1,0.4c0.9,0.4,1.3,1,1.3,1.8c0,1.2-0.7,2.1-2.2,2.1     c-1.4,0-2.1-0.6-2.1-2.2v-0.2h0.8v0.2c0,1,0.4,1.6,1.3,1.6c0.8,0,1.4-0.5,1.4-1.3c0-0.6-0.2-1-0.9-1.3L191.6,46.2z"
   id="path54"
   style="fill:#f9f9f9" />
			<path
   class="st1"
   d="M204.5,46.5c-0.1,2.1-1.1,3.3-2.8,3.3c-1.9,0-3-1.5-3-4.9s1.1-4.9,3-4.9c1.9,0,2.7,1.4,2.7,2.9h-0.8     c0-1.3-0.6-2.2-1.9-2.2c-1.3,0-2.2,1.1-2.2,4.2c0,3,0.8,4.2,2.2,4.2c1.2,0,1.9-1,1.9-2.6H204.5z"
   id="path56"
   style="fill:#f9f9f9" />
			<path
   class="st1"
   d="M205.7,42.7h0.8v4.9c0,1.1,0.4,1.6,1.2,1.6c0.9,0,1.5-0.7,1.5-1.8v-4.7h0.8v7h-0.7v-1h0     c-0.4,0.8-1.1,1.1-1.8,1.1c-1.1,0-1.8-0.6-1.8-1.9V42.7z"
   id="path58"
   style="fill:#f9f9f9" />
			<path
   class="st1"
   d="M211.6,40.3h0.8v1.3h-0.8V40.3z M211.6,42.7h0.8v7h-0.8V42.7z"
   id="path60"
   style="fill:#f9f9f9" />
			<path
   class="st1"
   d="M217.6,48.5L217.6,48.5c-0.2,0.8-0.9,1.3-1.7,1.3c-1.5,0-2.2-1.2-2.2-3.7c0-2.4,0.7-3.7,2.2-3.7     c0.9,0,1.5,0.5,1.6,1.2h0v-3.5h0.8v9.4h-0.7V48.5z M216,49.2c0.8,0,1.5-0.4,1.5-3c0-2.6-0.7-3-1.5-3c-0.8,0-1.5,0.4-1.5,3     C214.5,48.8,215.2,49.2,216,49.2z"
   id="path62"
   style="fill:#f9f9f9" />
			<path
   class="st1"
   d="M219.6,44.8c0-1.4,0.7-2.2,2.2-2.2c1.5,0,2,0.8,2,1.9v4.1c0,0.4,0.1,0.6,0.4,0.6h0.2v0.6     c-0.1,0.1-0.3,0.1-0.4,0.1c-0.6,0-1-0.1-1-0.9v-0.2h0c-0.3,0.9-1,1.2-1.8,1.2c-1.2,0-1.8-0.8-1.8-2c0-0.9,0.4-1.7,1.4-1.9     l1.5-0.4c0.6-0.2,0.7-0.3,0.7-1.1c0-0.9-0.5-1.2-1.2-1.2c-0.9,0-1.3,0.6-1.3,1.6H219.6z M223,45.7L223,45.7     c-0.1,0.2-0.6,0.4-0.9,0.5l-0.7,0.2c-0.8,0.2-1.2,0.6-1.2,1.4c0,0.8,0.4,1.4,1.1,1.4c1,0,1.6-0.7,1.6-2V45.7z"
   id="path64"
   style="fill:#f9f9f9" />
			<path
   class="st1"
   d="M229.1,48.5L229.1,48.5c-0.2,0.8-0.9,1.3-1.7,1.3c-1.5,0-2.2-1.2-2.2-3.7c0-2.4,0.7-3.7,2.2-3.7     c0.9,0,1.5,0.5,1.6,1.2h0v-3.5h0.8v9.4h-0.7V48.5z M227.5,49.2c0.8,0,1.5-0.4,1.5-3c0-2.6-0.7-3-1.5-3c-0.8,0-1.5,0.4-1.5,3     C226,48.8,226.7,49.2,227.5,49.2z"
   id="path66"
   style="fill:#f9f9f9" />
			<path
   class="st1"
   d="M233.3,42.5c1.5,0,2.4,1.2,2.4,3.7c0,2.4-0.9,3.7-2.4,3.7s-2.4-1.2-2.4-3.7     C230.9,43.8,231.8,42.5,233.3,42.5z M233.3,49.2c0.9,0,1.6-0.8,1.6-3c0-2.2-0.7-3-1.6-3c-0.9,0-1.6,0.8-1.6,3     C231.7,48.4,232.4,49.2,233.3,49.2z"
   id="path68"
   style="fill:#f9f9f9" />
			<path
   class="st1"
   d="M238,46.2c-1-0.4-1.3-1-1.3-1.7c0-1.4,0.9-2,2.1-2c1.3,0,1.9,0.7,1.9,2v0.2h-0.8v-0.2c0-0.9-0.4-1.3-1.1-1.3     c-0.9,0-1.3,0.5-1.3,1.2c0,0.5,0.2,0.9,0.9,1.2l1.1,0.4c0.9,0.4,1.3,1,1.3,1.8c0,1.2-0.7,2.1-2.2,2.1c-1.4,0-2.1-0.6-2.1-2.2     v-0.2h0.8v0.2c0,1,0.4,1.6,1.3,1.6c0.8,0,1.4-0.5,1.4-1.3c0-0.6-0.3-1-0.9-1.3L238,46.2z"
   id="path70"
   style="fill:#f9f9f9" />
			<path
   class="st1"
   d="M248.8,48.5L248.8,48.5c-0.2,0.8-0.9,1.3-1.7,1.3c-1.5,0-2.2-1.2-2.2-3.7c0-2.4,0.7-3.7,2.2-3.7     c0.9,0,1.5,0.5,1.6,1.2h0v-3.5h0.8v9.4h-0.7V48.5z M247.2,49.2c0.8,0,1.5-0.4,1.5-3c0-2.6-0.7-3-1.5-3c-0.8,0-1.5,0.4-1.5,3     C245.7,48.8,246.4,49.2,247.2,49.2z"
   id="path72"
   style="fill:#f9f9f9" />
			<path
   class="st1"
   d="M255.3,47.4c-0.1,1.5-0.9,2.5-2.3,2.5c-1.5,0-2.3-1-2.3-3.7c0-2.4,0.9-3.7,2.4-3.7c1.6,0,2.3,1.1,2.3,3.4     v0.3h-3.8v0.3c0,2,0.7,2.6,1.5,2.6c0.8,0,1.3-0.6,1.5-1.8H255.3z M254.5,45.6c0-1.7-0.5-2.4-1.5-2.4c-1,0-1.5,0.6-1.5,2.4H254.5z     "
   id="path74"
   style="fill:#f9f9f9" />
			<path
   class="st1"
   d="M263.9,42.7c0-1.2-0.5-1.9-1.7-1.9c-1.1,0-1.8,0.8-1.8,1.7c0,2.8,4.6,1.3,4.6,4.6c0,1.8-1.1,2.8-2.8,2.8     c-1.8,0-2.7-0.9-2.7-2.8v-0.3h0.8v0.4c0,1.2,0.6,2,1.9,2c1.2,0,2-0.6,2-1.9c0-2.8-4.6-1.2-4.6-4.6c0-1.5,1-2.5,2.6-2.5     c1.8,0,2.6,0.9,2.6,2.6H263.9z"
   id="path76"
   style="fill:#f9f9f9" />
			<path
   class="st1"
   d="M265.9,44.8c0-1.4,0.7-2.2,2.2-2.2c1.5,0,2,0.8,2,1.9v4.1c0,0.4,0.1,0.6,0.4,0.6h0.2v0.6     c-0.1,0.1-0.3,0.1-0.4,0.1c-0.6,0-1-0.1-1-0.9v-0.2h0c-0.3,0.9-1,1.2-1.8,1.2c-1.2,0-1.8-0.8-1.8-2c0-0.9,0.4-1.7,1.4-1.9     l1.5-0.4c0.6-0.2,0.7-0.3,0.7-1.1c0-0.9-0.5-1.2-1.2-1.2c-0.9,0-1.3,0.6-1.3,1.6H265.9z M269.3,45.7L269.3,45.7     c-0.1,0.2-0.6,0.4-0.9,0.5l-0.7,0.2c-0.8,0.2-1.2,0.6-1.2,1.4c0,0.8,0.4,1.4,1.1,1.4c1,0,1.6-0.7,1.6-2V45.7z"
   id="path78"
   style="fill:#f9f9f9" />
			<path
   class="st1"
   d="M271.7,42.7h0.8v4.9c0,1.1,0.4,1.6,1.2,1.6c0.9,0,1.5-0.7,1.5-1.8v-4.7h0.8v7h-0.7v-1h0     c-0.4,0.8-1.1,1.1-1.8,1.1c-1.1,0-1.8-0.6-1.8-1.9V42.7z M275.2,40l-1.3,1.9h-0.6l1-1.9H275.2z"
   id="path80"
   style="fill:#f9f9f9" />
			<path
   class="st1"
   d="M281.2,48.5L281.2,48.5c-0.2,0.8-0.9,1.3-1.7,1.3c-1.5,0-2.2-1.2-2.2-3.7c0-2.4,0.7-3.7,2.2-3.7     c0.9,0,1.5,0.5,1.6,1.2h0v-3.5h0.8v9.4h-0.7V48.5z M279.6,49.2c0.8,0,1.5-0.4,1.5-3c0-2.6-0.7-3-1.5-3c-0.8,0-1.5,0.4-1.5,3     C278.1,48.8,278.8,49.2,279.6,49.2z"
   id="path82"
   style="fill:#f9f9f9" />
			<path
   class="st1"
   d="M287.7,47.4c-0.1,1.5-0.9,2.5-2.3,2.5c-1.5,0-2.3-1-2.3-3.7c0-2.4,0.9-3.7,2.4-3.7c1.6,0,2.3,1.1,2.3,3.4     v0.3H284v0.3c0,2,0.7,2.6,1.5,2.6c0.8,0,1.3-0.6,1.5-1.8H287.7z M286.9,45.6c0-1.7-0.5-2.4-1.5-2.4c-1,0-1.5,0.6-1.5,2.4H286.9z"
   id="path84"
   style="fill:#f9f9f9" />
			<path
   class="st1"
   d="M292.2,40.3h2.5c1.8,0,2.6,1.1,2.6,2.7c0,1.4-0.7,2.7-2.9,2.7H293v4.1h-0.8V40.3z M293,44.9h1.4     c1.1,0,2-0.5,2-2c0-1.4-0.7-2-2-2H293V44.9z"
   id="path86"
   style="fill:#f9f9f9" />
			<path
   class="st1"
   d="M298.5,42.7h0.8v1.1h0c0.3-0.8,0.9-1.3,1.8-1.3c0.1,0,0.2,0,0.3,0v0.8c-0.1,0-0.3,0-0.4,0     c-0.9,0-1.7,0.6-1.7,2v4.4h-0.8V42.7z"
   id="path88"
   style="fill:#f9f9f9" />
			<path
   class="st1"
   d="M302.2,40.3h0.8v1.3h-0.8V40.3z M302.2,42.7h0.8v7h-0.8V42.7z"
   id="path90"
   style="fill:#f9f9f9" />
			<path
   class="st1"
   d="M304.6,42.7h0.7v1h0c0.4-0.8,1-1.1,1.8-1.1c0.8,0,1.4,0.5,1.5,1.2h0c0.3-0.8,0.9-1.2,1.8-1.2     c1,0,1.6,0.6,1.6,1.8v5.4h-0.8v-5.2c0-0.8-0.4-1.3-1.1-1.3c-0.8,0-1.4,0.7-1.4,1.8v4.7h-0.8v-5.2c0-0.8-0.4-1.3-1.1-1.3     c-0.8,0-1.4,0.7-1.4,1.8v4.7h-0.8V42.7z"
   id="path92"
   style="fill:#f9f9f9" />
			<path
   class="st1"
   d="M313.5,44.8c0-1.4,0.7-2.2,2.2-2.2c1.5,0,2,0.8,2,1.9v4.1c0,0.4,0.1,0.6,0.4,0.6h0.2v0.6     c-0.1,0.1-0.3,0.1-0.4,0.1c-0.6,0-1-0.1-1-0.9v-0.2h0c-0.3,0.9-1,1.2-1.8,1.2c-1.2,0-1.8-0.8-1.8-2c0-0.9,0.4-1.7,1.4-1.9     l1.5-0.4c0.6-0.2,0.7-0.3,0.7-1.1c0-0.9-0.5-1.2-1.2-1.2c-0.9,0-1.3,0.6-1.3,1.6H313.5z M316.8,45.7L316.8,45.7     c-0.1,0.2-0.6,0.4-0.9,0.5l-0.7,0.2c-0.8,0.2-1.2,0.6-1.2,1.4c0,0.8,0.4,1.4,1.1,1.4c1,0,1.6-0.7,1.6-2V45.7z M317,40l-1.3,1.9     h-0.6l1-1.9H317z"
   id="path94"
   style="fill:#f9f9f9" />
			<path
   class="st1"
   d="M319.2,42.7h0.8v1.1h0c0.3-0.8,0.9-1.3,1.8-1.3c0.1,0,0.2,0,0.3,0v0.8c-0.1,0-0.3,0-0.4,0     c-0.9,0-1.7,0.6-1.7,2v4.4h-0.8V42.7z"
   id="path96"
   style="fill:#f9f9f9" />
			<path
   class="st1"
   d="M323,40.3h0.8v1.3H323V40.3z M323,42.7h0.8v7H323V42.7z"
   id="path98"
   style="fill:#f9f9f9" />
			<path
   class="st1"
   d="M327.4,42.5c1.5,0,2.4,1.2,2.4,3.7c0,2.4-0.9,3.7-2.4,3.7s-2.4-1.2-2.4-3.7C325,43.8,325.8,42.5,327.4,42.5z      M327.4,49.2c0.9,0,1.6-0.8,1.6-3c0-2.2-0.7-3-1.6-3c-0.9,0-1.6,0.8-1.6,3C325.8,48.4,326.5,49.2,327.4,49.2z"
   id="path100"
   style="fill:#f9f9f9" />
			<path
   class="st1"
   d="M332,46.2c-1-0.4-1.3-1-1.3-1.7c0-1.4,0.9-2,2.1-2c1.3,0,1.9,0.7,1.9,2v0.2h-0.8v-0.2c0-0.9-0.4-1.3-1.1-1.3     c-0.9,0-1.3,0.5-1.3,1.2c0,0.5,0.2,0.9,0.9,1.2l1.1,0.4c0.9,0.4,1.3,1,1.3,1.8c0,1.2-0.7,2.1-2.2,2.1c-1.4,0-2.1-0.6-2.1-2.2     v-0.2h0.8v0.2c0,1,0.4,1.6,1.3,1.6c0.8,0,1.4-0.5,1.4-1.3c0-0.6-0.3-1-0.9-1.3L332,46.2z"
   id="path102"
   style="fill:#f9f9f9" />
		</g>
		<g
   id="g118"
   style="fill:#f9f9f9">
			<path
   class="st0"
   d="M91.6,17.3c-0.3-0.2-0.7-0.5-1-0.7c0.4-0.6,0.6-1.2,0.6-1.6c0.2-0.9,0.3-1.8,0.3-2.8c0-1.1-0.1-1.9-0.2-2.5     c-0.6-1.9-2.8-4.7-5.4-4.7h-7.5v25.2H88c1.1,0,2.4-0.5,3.6-1.4c1-0.9,1.6-1.9,1.9-3c0.2-0.9,0.3-1.8,0.3-2.7c0-1-0.1-2-0.3-3     C93.2,19.4,92.6,18.2,91.6,17.3z M87.6,14.3c-0.2,0.6-0.9,1.6-1.7,1.6h-3.8V8.7h3.8c0.9,0,1.6,1.1,1.7,1.7     c0.2,0.8,0.3,1.5,0.3,1.9C87.9,12.8,87.8,13.4,87.6,14.3z M82.1,19.6H88c0.8,0,1.7,0.9,1.9,1.4c0.2,1.1,0.3,1.8,0.3,2.1     c0,0.4-0.1,1.2-0.3,2c-0.2,0.6-1,1.5-1.9,1.5h-5.9V19.6z"
   id="path106"
   style="fill:#f9f9f9" />
			<rect
   x="97.8"
   y="5"
   class="st0"
   width="3.6"
   height="25.4"
   id="rect108"
   style="fill:#f9f9f9" />
			<rect
   x="105"
   y="16.2"
   class="st0"
   width="9.2"
   height="3.6"
   id="rect110"
   style="fill:#f9f9f9" />
			<path
   class="st0"
   d="M131.7,24.2c-1.4,1.5-3.1,2.4-4.5,2.4h-0.7c-2.3,0-4.6-2.1-5.1-4l0-0.1c-0.3-1.3-0.4-3-0.4-4.8     c0-1.8,0.1-3.6,0.4-4.9l0-0.1c0.6-1.9,2.8-4,5.1-4h0.7c1.5,0,3.2,0.9,4.5,2.4l0.2,0.2l2.7-2.5l-0.2-0.2c-2.1-2.2-4.8-3.5-7.2-3.5     h-0.7c-1.8,0-3.9,0.7-5.6,2c-1.5,1.2-2.7,3-3.2,4.9c-0.3,1.4-0.4,3.5-0.4,5.8c0,2.2,0.1,4.4,0.4,5.8c0.3,1.7,1.5,3.5,3.2,4.9     c1.7,1.2,3.7,1.9,5.5,1.9h0.7c2.4,0,5.1-1.3,7.2-3.5l0.2-0.2l-2.7-2.5L131.7,24.2z"
   id="path112"
   style="fill:#f9f9f9" />
			<path
   class="st0"
   d="M146.4,15.9c-0.5-0.3-1-0.7-1.5-1c-1.1-0.7-2.2-1.5-3.2-2.5c-0.2-0.3-0.5-0.9-0.5-1.2c0-1,0.7-1.7,0.8-1.8     c0.6-0.7,1.3-0.8,2.9-0.8c1.6,0,3.2,1.5,3.5,3.4l0.1,0.3l3.5-0.8l0-0.3c-0.4-1.9-1.4-3.8-2.6-4.8c-1.4-1-2.9-1.6-4.5-1.6     c-2.3,0-3.9,0.3-5.5,2c-1.1,1.2-1.8,2.8-1.8,4.3c0,1,0.4,2.2,1.1,3.3c0.6,0.9,2.5,2.3,5.1,4c0.3,0.3,0.9,0.8,1.3,1     c0.8,0.6,2.7,1.9,3.1,2.4c0.3,0.3,0.4,0.8,0.4,1.5c0,0.6-0.4,1.5-0.7,1.9c-0.5,0.6-1.6,1.5-3.4,1.5c-3.5,0-4.3-3.3-4.3-3.7     l-0.1-0.3l-3.5,0.8l0,0.2c0.1,0.9,0.6,3.2,2.2,4.5l0.4,0.4v0c1.4,1.1,3.2,1.7,5.2,1.7c3,0,5-1.5,6.2-2.8c0.9-1.1,1.5-2.7,1.5-4.1     c0-1.5-0.4-3-1.3-4.1C150.1,18.6,148.1,17.2,146.4,15.9z"
   id="path114"
   style="fill:#f9f9f9" />
			<path
   class="st0"
   d="M162.8,5.1h-7.5v25.4h3.6v-10h3.9c4.3,0,7.6-3.4,7.6-7.7C170.4,8.5,167.1,5.1,162.8,5.1z M162.8,16.8h-3.9     v-8h3.9c2.2,0,4,1.8,4,4C166.8,15,165,16.8,162.8,16.8z"
   id="path116"
   style="fill:#f9f9f9" />
		</g>
	</g>
	<g
   id="g247">
		<g
   id="g245">
			<g
   id="g243">
				<g
   id="g241">
					<g
   id="g168">
						<linearGradient
   id="SVGID_1_"
   gradientUnits="userSpaceOnUse"
   x1="0.9035"
   y1="28.6325"
   x2="36.0797"
   y2="0.9406">
							<stop
   offset="0"
   style="stop-color:#009245"
   id="stop122" />
							<stop
   offset="5.277482e-02"
   style="stop-color:#099545"
   id="stop124" />
							<stop
   offset="0.1388"
   style="stop-color:#219E44"
   id="stop126" />
							<stop
   offset="0.2475"
   style="stop-color:#49AD42"
   id="stop128" />
							<stop
   offset="0.3734"
   style="stop-color:#80C140"
   id="stop130" />
							<stop
   offset="0.4"
   style="stop-color:#8CC63F"
   id="stop132" />
							<stop
   offset="0.5843"
   style="stop-color:#5DBA63"
   id="stop134" />
							<stop
   offset="0.7668"
   style="stop-color:#35B082"
   id="stop136" />
							<stop
   offset="0.9113"
   style="stop-color:#1DA995"
   id="stop138" />
							<stop
   offset="1"
   style="stop-color:#14A79C"
   id="stop140" />
						</linearGradient>
						<path
   class="st2"
   d="M20.5,12.8C27.1,7.9,33.9,7,38,7c1.5,0,2.8,0.1,4,0.3c-4.2-3.1-9.3-4.8-14.7-4.8c-3.4,0-6.8,0.7-9.8,2        c-0.2,0.6-0.5,1.2-0.8,1.9c-0.7,1.6-1.6,3.5-2.3,6.9c1.6-0.4,3.4-0.6,5.2-0.6C19.9,12.7,20.2,12.7,20.5,12.8z"
   id="path143" />
						<linearGradient
   id="SVGID_2_"
   gradientUnits="userSpaceOnUse"
   x1="17.9061"
   y1="50.2304"
   x2="53.0823"
   y2="22.5386">
							<stop
   offset="0"
   style="stop-color:#009245"
   id="stop145" />
							<stop
   offset="5.277482e-02"
   style="stop-color:#099545"
   id="stop147" />
							<stop
   offset="0.1388"
   style="stop-color:#219E44"
   id="stop149" />
							<stop
   offset="0.2475"
   style="stop-color:#49AD42"
   id="stop151" />
							<stop
   offset="0.3734"
   style="stop-color:#80C140"
   id="stop153" />
							<stop
   offset="0.4"
   style="stop-color:#8CC63F"
   id="stop155" />
							<stop
   offset="0.5843"
   style="stop-color:#5DBA63"
   id="stop157" />
							<stop
   offset="0.7668"
   style="stop-color:#35B082"
   id="stop159" />
							<stop
   offset="0.9113"
   style="stop-color:#1DA995"
   id="stop161" />
							<stop
   offset="1"
   style="stop-color:#14A79C"
   id="stop163" />
						</linearGradient>
						<path
   class="st3"
   d="M40.1,22.7c-0.5,0-1,0-1.5,0c3.4,4.6,4.5,10.1,3.5,16.7c3.8-1.3,6.9-3,8.3-3.8c0.2-0.1,0.4-0.2,0.5-0.3        c0.7-2.1,1.1-4.4,1.2-6.7C49.1,24.3,45.8,22.7,40.1,22.7z"
   id="path166" />
					</g>
					<linearGradient
   id="SVGID_3_"
   gradientUnits="userSpaceOnUse"
   x1="10.477"
   y1="40.7934"
   x2="45.6532"
   y2="13.1016">
						<stop
   offset="0"
   style="stop-color:#009245"
   id="stop170" />
						<stop
   offset="5.277482e-02"
   style="stop-color:#099545"
   id="stop172" />
						<stop
   offset="0.1388"
   style="stop-color:#219E44"
   id="stop174" />
						<stop
   offset="0.2475"
   style="stop-color:#49AD42"
   id="stop176" />
						<stop
   offset="0.3734"
   style="stop-color:#80C140"
   id="stop178" />
						<stop
   offset="0.4"
   style="stop-color:#8CC63F"
   id="stop180" />
						<stop
   offset="0.5843"
   style="stop-color:#5DBA63"
   id="stop182" />
						<stop
   offset="0.7668"
   style="stop-color:#35B082"
   id="stop184" />
						<stop
   offset="0.9113"
   style="stop-color:#1DA995"
   id="stop186" />
						<stop
   offset="1"
   style="stop-color:#14A79C"
   id="stop188" />
					</linearGradient>
					<path
   class="st4"
   d="M40.1,21.2c5.4,0,9,1.4,12.1,5c-0.3-6.2-2.9-12-7.4-16.4c-0.4-0.4-2.9-1.2-6.9-1.2       c-5.1,0-14.7,1.5-22.6,11.2c-2.2,2.7-3.3,5.7-4.3,8.4c-1.2,3.3-2.2,6.1-4.9,6.6c-1,0.2-2.1-0.2-3.1-0.9c2,7.7,7.6,14.1,15.1,17       c-1.5-2.4-2.2-4.3-2.2-8.1c0-11.1,8.9-20.3,20.6-21.3C37.9,21.3,39.1,21.2,40.1,21.2z"
   id="path191" />
					<g
   id="g239">
						<linearGradient
   id="SVGID_4_"
   gradientUnits="userSpaceOnUse"
   x1="19.0378"
   y1="51.6679"
   x2="54.2139"
   y2="23.9761">
							<stop
   offset="0"
   style="stop-color:#009245"
   id="stop193" />
							<stop
   offset="5.277482e-02"
   style="stop-color:#099545"
   id="stop195" />
							<stop
   offset="0.1388"
   style="stop-color:#219E44"
   id="stop197" />
							<stop
   offset="0.2475"
   style="stop-color:#49AD42"
   id="stop199" />
							<stop
   offset="0.3734"
   style="stop-color:#80C140"
   id="stop201" />
							<stop
   offset="0.4"
   style="stop-color:#8CC63F"
   id="stop203" />
							<stop
   offset="0.5843"
   style="stop-color:#5DBA63"
   id="stop205" />
							<stop
   offset="0.7668"
   style="stop-color:#35B082"
   id="stop207" />
							<stop
   offset="0.9113"
   style="stop-color:#1DA995"
   id="stop209" />
							<stop
   offset="1"
   style="stop-color:#14A79C"
   id="stop211" />
						</linearGradient>
						<path
   class="st5"
   d="M18.1,38.3c-0.3,1.4-0.5,2.9-0.5,4.4c0,4.2,0.8,5.7,3.1,8.9c2.1,0.6,4.4,0.9,6.7,0.9c10,0,19-5.9,22.9-15        c-3.4,1.8-10.7,5.4-18.6,5.4C26.4,42.9,21.9,41.4,18.1,38.3z"
   id="path214" />
						<linearGradient
   id="SVGID_5_"
   gradientUnits="userSpaceOnUse"
   x1="0.1361"
   y1="27.6587"
   x2="35.3122"
   y2="-3.311434e-02">
							<stop
   offset="0"
   style="stop-color:#009245"
   id="stop216" />
							<stop
   offset="5.277482e-02"
   style="stop-color:#099545"
   id="stop218" />
							<stop
   offset="0.1388"
   style="stop-color:#219E44"
   id="stop220" />
							<stop
   offset="0.2475"
   style="stop-color:#49AD42"
   id="stop222" />
							<stop
   offset="0.3734"
   style="stop-color:#80C140"
   id="stop224" />
							<stop
   offset="0.4"
   style="stop-color:#8CC63F"
   id="stop226" />
							<stop
   offset="0.5843"
   style="stop-color:#5DBA63"
   id="stop228" />
							<stop
   offset="0.7668"
   style="stop-color:#35B082"
   id="stop230" />
							<stop
   offset="0.9113"
   style="stop-color:#1DA995"
   id="stop232" />
							<stop
   offset="1"
   style="stop-color:#14A79C"
   id="stop234" />
						</linearGradient>
						<path
   class="st6"
   d="M2.3,28.4c0.2,3.7,2.4,5,3.6,4.8c1.8-0.3,2.6-2.5,3.7-5.6c0.5-1.5,1.2-3.2,2-4.9c0-2.6,0.3-5,0.7-7.2        c0.8-5.1,2-7.6,2.9-9.7c0-0.1,0.1-0.2,0.1-0.3c-8,4.3-13.1,12.7-13.1,22C2.3,27.8,2.3,28.4,2.3,28.4L2.3,28.4z"
   id="path237" />
					</g>
				</g>
			</g>
		</g>
	</g>
</g>
</svg>
