<?xml version="1.0" encoding="UTF-8"?><svg id="logo_horizontal_azul" xmlns="http://www.w3.org/2000/svg" width="700" height="253.9" viewBox="0 0 700 253.9"><defs><style>.cls-1{fill:#489fb5;}</style></defs><g><g><path class="cls-1" d="M283.77,38.14c3.19,0,6.03,.64,8.5,1.91,2.47,1.27,4.42,3.22,5.84,5.84,1.42,2.63,2.13,5.98,2.13,10.07v23.07h-11.68v-21.27c0-3.24-.67-5.64-2.02-7.19-1.35-1.55-3.24-2.32-5.69-2.32-1.7,0-3.22,.39-4.57,1.16s-2.4,1.93-3.15,3.48c-.74,1.55-1.12,3.52-1.12,5.92v20.22h-11.68v-21.27c0-3.24-.66-5.64-1.98-7.19-1.33-1.55-3.21-2.32-5.66-2.32-1.69,0-3.22,.39-4.57,1.16-1.35,.78-2.4,1.93-3.14,3.48-.75,1.55-1.13,3.52-1.13,5.92v20.22h-11.68V38.74h11.15v11.01l-2.09-3.22c1.39-2.74,3.38-4.83,5.95-6.25,2.57-1.42,5.5-2.13,8.8-2.13,3.69,0,6.93,.93,9.7,2.8,2.77,1.88,4.6,4.73,5.5,8.58l-4.12-1.13c1.35-3.15,3.51-5.64,6.48-7.49,2.97-1.84,6.38-2.77,10.23-2.77Z"/><path class="cls-1" d="M323.16,79.62c-3.15,0-5.84-.53-8.09-1.61-2.24-1.07-3.97-2.53-5.17-4.38-1.2-1.84-1.79-3.92-1.79-6.21s.59-4.5,1.76-6.29c1.18-1.8,3.03-3.21,5.58-4.24,2.54-1.02,5.86-1.53,9.96-1.53h10.71v6.82h-9.44c-2.75,0-4.63,.45-5.65,1.35-1.02,.9-1.53,2.02-1.53,3.37,0,1.49,.59,2.68,1.76,3.55,1.18,.87,2.79,1.31,4.83,1.31s3.69-.46,5.24-1.39c1.55-.92,2.67-2.28,3.37-4.08l1.8,5.39c-.85,2.59-2.4,4.57-4.64,5.92-2.25,1.34-5.14,2.02-8.69,2.02Zm12.28-.6v-7.86l-.75-1.72v-14.08c0-2.49-.76-4.45-2.28-5.84-1.53-1.4-3.85-2.1-7-2.1-2.15,0-4.25,.34-6.33,1.01s-3.83,1.58-5.28,2.73l-4.2-8.17c2.2-1.55,4.85-2.75,7.94-3.59,3.1-.85,6.24-1.27,9.44-1.27,6.14,0,10.91,1.44,14.3,4.34,3.4,2.89,5.09,7.41,5.09,13.55v22.99h-10.93Z"/><path class="cls-1" d="M356.94,79.03V38.74h11.15v11.38l-1.57-3.29c1.2-2.85,3.12-5,5.77-6.48,2.65-1.48,5.86-2.21,9.66-2.21v10.78c-.5-.04-.95-.08-1.35-.11s-.82-.04-1.27-.04c-3.2,0-5.78,.91-7.75,2.73-1.97,1.82-2.96,4.66-2.96,8.5v19.02h-11.68Z"/><path class="cls-1" d="M405.69,79.62c-3.8,0-7.22-.85-10.26-2.54-3.05-1.7-5.46-4.1-7.22-7.19-1.77-3.1-2.66-6.77-2.66-11.01s.88-7.84,2.66-10.94c1.77-3.09,4.18-5.5,7.22-7.22,3.05-1.72,6.47-2.58,10.26-2.58,3.54,0,6.58,.74,9.09,2.24,2.52,1.49,4.46,3.77,5.81,6.81,1.35,3.05,2.02,6.94,2.02,11.69s-.7,8.57-2.1,11.64c-1.4,3.07-3.37,5.35-5.91,6.85-2.54,1.5-5.52,2.24-8.91,2.24Zm2.02-9.58c1.9,0,3.62-.45,5.16-1.35s2.79-2.18,3.71-3.85c.92-1.67,1.39-3.66,1.39-5.95s-.46-4.35-1.39-6c-.92-1.65-2.16-2.92-3.71-3.82-1.55-.9-3.27-1.35-5.16-1.35s-3.7,.45-5.25,1.35c-1.55,.9-2.79,2.17-3.71,3.82-.92,1.65-1.39,3.65-1.39,6s.46,4.28,1.39,5.95c.92,1.67,2.16,2.96,3.71,3.85,1.55,.9,3.29,1.35,5.25,1.35Zm10.04,23.52v-22.69l.74-11.91-.22-11.98v-8.24h11.16v54.82h-11.68Z"/><path class="cls-1" d="M457.21,79.62c-3.35,0-6.33-.64-8.95-1.95-2.62-1.3-4.66-3.28-6.11-5.95-1.45-2.67-2.17-6.08-2.17-10.22v-22.77h11.68v21.04c0,3.35,.71,5.8,2.13,7.38,1.42,1.57,3.43,2.36,6.03,2.36,1.8,0,3.4-.39,4.79-1.16,1.4-.77,2.49-1.97,3.29-3.59,.79-1.62,1.2-3.66,1.2-6.11v-19.92h11.68v40.29h-11.08v-11.08l2.02,3.22c-1.35,2.8-3.33,4.9-5.96,6.33-2.62,1.42-5.48,2.13-8.57,2.13Z"/><path class="cls-1" d="M511.65,79.62c-4.59,0-8.62-.9-12.1-2.69-3.47-1.8-6.15-4.26-8.05-7.38-1.9-3.12-2.84-6.68-2.84-10.67s.93-7.63,2.8-10.75c1.88-3.12,4.43-5.57,7.68-7.34,3.25-1.77,6.92-2.66,11.01-2.66s7.5,.83,10.67,2.51c3.17,1.67,5.68,4.07,7.52,7.19,1.84,3.12,2.77,6.85,2.77,11.19,0,.45-.03,.96-.08,1.53-.05,.58-.1,1.11-.15,1.62h-32.73v-6.82h26.59l-4.5,2.02c0-2.1-.42-3.92-1.27-5.47-.85-1.55-2.02-2.75-3.52-3.63-1.5-.87-3.25-1.31-5.25-1.31s-3.76,.44-5.28,1.31c-1.52,.88-2.71,2.1-3.55,3.67-.85,1.58-1.27,3.43-1.27,5.58v1.79c0,2.2,.48,4.13,1.46,5.81,.97,1.67,2.35,2.94,4.12,3.82,1.77,.88,3.85,1.31,6.25,1.31,2.15,0,4.03-.32,5.65-.97s3.11-1.62,4.46-2.92l6.21,6.74c-1.84,2.1-4.17,3.71-6.96,4.83-2.8,1.13-6.02,1.69-9.66,1.69Zm-16.78-46.05l9.89-10.79h10.33l9.88,10.79h-8.53l-10.33-8.99h7.64l-10.33,8.99h-8.54Z"/><path class="cls-1" d="M552.46,79.62c-3.44,0-6.75-.41-9.92-1.23-3.17-.82-5.68-1.86-7.52-3.11l3.89-8.38c1.84,1.14,4.03,2.08,6.55,2.8,2.52,.72,5,1.09,7.45,1.09,2.7,0,4.6-.32,5.73-.97,1.12-.65,1.69-1.55,1.69-2.7,0-.95-.44-1.66-1.31-2.14-.88-.47-2.04-.83-3.48-1.09-1.45-.25-3.03-.5-4.76-.74-1.72-.25-3.45-.59-5.2-1.01-1.75-.43-3.35-1.06-4.79-1.91-1.45-.85-2.61-1.99-3.48-3.44-.88-1.45-1.31-3.32-1.31-5.62,0-2.55,.73-4.79,2.21-6.74,1.47-1.95,3.61-3.48,6.4-4.6,2.79-1.13,6.14-1.69,10.04-1.69,2.74,0,5.54,.3,8.39,.9,2.84,.6,5.21,1.48,7.11,2.62l-3.89,8.31c-1.95-1.14-3.9-1.93-5.88-2.36-1.98-.42-3.89-.64-5.73-.64-2.59,0-4.5,.35-5.69,1.05-1.2,.7-1.8,1.6-1.8,2.7,0,1,.44,1.75,1.31,2.24,.88,.5,2.04,.9,3.48,1.2,1.45,.3,3.03,.56,4.76,.78,1.72,.23,3.45,.57,5.2,1.01,1.75,.45,3.33,1.09,4.76,1.91,1.42,.82,2.58,1.95,3.48,3.36,.9,1.42,1.35,3.29,1.35,5.58,0,2.49-.74,4.71-2.24,6.63-1.49,1.92-3.66,3.43-6.47,4.53-2.82,1.1-6.26,1.65-10.3,1.65Z"/><path class="cls-1" d="M617.16,79.62c-3.8,0-7.21-.86-10.26-2.58-3.05-1.72-5.46-4.13-7.23-7.22-1.77-3.1-2.66-6.74-2.66-10.93s.89-7.92,2.66-11.01c1.77-3.09,4.18-5.49,7.23-7.19s6.46-2.54,10.26-2.54c3.4,0,6.37,.74,8.91,2.24,2.55,1.49,4.52,3.77,5.92,6.81,1.39,3.05,2.1,6.94,2.1,11.69s-.67,8.57-2.02,11.64c-1.35,3.07-3.29,5.35-5.81,6.85-2.52,1.5-5.56,2.24-9.1,2.24Zm2.02-9.58c1.9,0,3.62-.45,5.17-1.35,1.55-.9,2.78-2.18,3.71-3.85,.92-1.67,1.38-3.66,1.38-5.95s-.46-4.35-1.38-6c-.93-1.65-2.16-2.92-3.71-3.82-1.55-.9-3.28-1.35-5.17-1.35s-3.69,.45-5.24,1.35c-1.55,.9-2.79,2.17-3.71,3.82-.93,1.65-1.39,3.65-1.39,6s.46,4.28,1.39,5.95c.92,1.67,2.16,2.96,3.71,3.85,1.55,.9,3.29,1.35,5.24,1.35Zm10.56,8.99v-8.24l.23-11.98-.75-11.91V23.46h11.68v55.57h-11.16Z"/><path class="cls-1" d="M671.68,79.62c-4.59,0-8.62-.9-12.1-2.69-3.47-1.8-6.15-4.26-8.05-7.38-1.9-3.12-2.84-6.68-2.84-10.67s.93-7.63,2.8-10.75c1.88-3.12,4.43-5.57,7.68-7.34,3.25-1.77,6.92-2.66,11.01-2.66s7.5,.83,10.67,2.51c3.17,1.67,5.68,4.07,7.52,7.19,1.84,3.12,2.77,6.85,2.77,11.19,0,.45-.03,.96-.08,1.53-.05,.58-.1,1.11-.15,1.62h-32.73v-6.82h26.59l-4.5,2.02c0-2.1-.42-3.92-1.27-5.47-.85-1.55-2.02-2.75-3.52-3.63-1.5-.87-3.25-1.31-5.25-1.31s-3.76,.44-5.28,1.31c-1.52,.88-2.71,2.1-3.55,3.67-.85,1.58-1.27,3.43-1.27,5.58v1.79c0,2.2,.48,4.13,1.46,5.81,.97,1.67,2.35,2.94,4.12,3.82,1.77,.88,3.85,1.31,6.25,1.31,2.15,0,4.03-.32,5.65-.97,1.62-.65,3.11-1.62,4.46-2.92l6.21,6.74c-1.84,2.1-4.17,3.71-6.96,4.83-2.8,1.13-6.02,1.69-9.66,1.69Z"/><path class="cls-1" d="M306.07,119.82c4.45,0,8.39,.88,11.83,2.65,3.43,1.77,6.14,4.48,8.13,8.13,1.98,3.65,2.97,8.32,2.97,14.02v32.09h-16.25v-29.59c0-4.52-.94-7.85-2.82-10-1.87-2.15-4.52-3.23-7.92-3.23-2.36,0-4.48,.54-6.35,1.62-1.88,1.08-3.33,2.7-4.38,4.85-1.04,2.16-1.56,4.9-1.56,8.24v28.13h-16.25v-29.59c0-4.52-.92-7.85-2.76-10-1.84-2.15-4.46-3.23-7.87-3.23-2.37,0-4.48,.54-6.36,1.62-1.87,1.08-3.33,2.7-4.38,4.85-1.04,2.16-1.56,4.9-1.56,8.24v28.13h-16.25v-56.05h15.52v15.31l-2.92-4.48c1.95-3.82,4.71-6.72,8.29-8.7,3.57-1.98,7.66-2.97,12.24-2.97,5.14,0,9.63,1.3,13.49,3.9,3.86,2.61,6.41,6.58,7.66,11.93l-5.73-1.56c1.88-4.38,4.88-7.85,9.01-10.42,4.13-2.57,8.87-3.85,14.22-3.85Z"/><path class="cls-1" d="M360.87,177.54c-4.38,0-8.13-.74-11.25-2.24-3.13-1.49-5.52-3.52-7.19-6.09-1.67-2.57-2.5-5.46-2.5-8.65s.81-6.25,2.45-8.76c1.63-2.5,4.22-4.46,7.76-5.88,3.54-1.42,8.16-2.14,13.86-2.14h14.9v9.48h-13.13c-3.82,0-6.44,.62-7.87,1.88-1.42,1.25-2.13,2.81-2.13,4.69,0,2.09,.81,3.73,2.45,4.95,1.63,1.22,3.87,1.83,6.72,1.83s5.14-.64,7.29-1.93c2.16-1.28,3.71-3.18,4.69-5.68l2.5,7.5c-1.18,3.61-3.34,6.35-6.46,8.23-3.13,1.88-7.15,2.81-12.09,2.81Zm17.09-.83v-10.94l-1.04-2.4v-19.59c0-3.47-1.06-6.18-3.18-8.13s-5.37-2.92-9.74-2.92c-2.99,0-5.92,.47-8.81,1.41-2.88,.94-5.33,2.21-7.35,3.8l-5.83-11.35c3.05-2.16,6.73-3.82,11.05-5,4.31-1.18,8.68-1.77,13.13-1.77,8.54,0,15.17,2.02,19.9,6.04,4.73,4.03,7.08,10.31,7.08,18.86v31.99h-15.21Z"/><path class="cls-1" d="M407.87,176.71v-56.05h15.52v15.83l-2.19-4.59c1.67-3.96,4.34-6.96,8.02-9.01,3.68-2.05,8.17-3.07,13.44-3.07v15c-.69-.07-1.32-.12-1.88-.16-.56-.03-1.14-.05-1.77-.05-4.45,0-8.04,1.27-10.78,3.8-2.75,2.54-4.11,6.48-4.11,11.83v26.46h-16.25Z"/><path class="cls-1" d="M460.49,112.84c-2.99,0-5.42-.87-7.29-2.61-1.88-1.74-2.82-3.89-2.82-6.46s.94-4.72,2.82-6.45c1.88-1.74,4.31-2.61,7.29-2.61s5.42,.82,7.29,2.45c1.88,1.63,2.82,3.73,2.82,6.3,0,2.71-.92,4.95-2.76,6.72-1.84,1.77-4.29,2.66-7.35,2.66Zm-8.13,63.87v-56.05h16.25v56.05h-16.25Z"/><path class="cls-1" d="M501.02,177.54c-4.38,0-8.13-.74-11.25-2.24-3.13-1.49-5.52-3.52-7.19-6.09-1.67-2.57-2.5-5.46-2.5-8.65s.81-6.25,2.45-8.76c1.63-2.5,4.22-4.46,7.76-5.88s8.16-2.14,13.86-2.14h14.9v9.48h-13.13c-3.82,0-6.44,.62-7.87,1.88-1.42,1.25-2.13,2.81-2.13,4.69,0,2.09,.81,3.73,2.45,4.95,1.63,1.22,3.87,1.83,6.72,1.83s5.14-.64,7.29-1.93c2.16-1.28,3.71-3.18,4.69-5.68l2.5,7.5c-1.18,3.61-3.34,6.35-6.46,8.23-3.13,1.88-7.15,2.81-12.09,2.81Zm17.09-.83v-10.94l-1.04-2.4v-19.59c0-3.47-1.06-6.18-3.18-8.13-2.12-1.95-5.37-2.92-9.74-2.92-2.99,0-5.92,.47-8.81,1.41-2.88,.94-5.33,2.21-7.35,3.8l-5.83-11.35c3.05-2.16,6.73-3.82,11.05-5,4.31-1.18,8.68-1.77,13.13-1.77,8.54,0,15.17,2.02,19.9,6.04,4.73,4.03,7.08,10.31,7.08,18.86v31.99h-15.21Z"/><path class="cls-1" d="M548.02,176.71V99.4h16.25v77.31h-16.25Z"/><path class="cls-1" d="M594.58,176.71l-23.55-56.05h16.78l19.59,48.24h-8.34l20.32-48.24h15.63l-23.65,56.05h-16.78Z"/><path class="cls-1" d="M657.1,177.54c-4.38,0-8.13-.74-11.25-2.24-3.13-1.49-5.52-3.52-7.19-6.09-1.67-2.57-2.5-5.46-2.5-8.65s.81-6.25,2.45-8.76c1.63-2.5,4.22-4.46,7.76-5.88,3.54-1.42,8.16-2.14,13.86-2.14h14.9v9.48h-13.13c-3.82,0-6.44,.62-7.87,1.88-1.42,1.25-2.13,2.81-2.13,4.69,0,2.09,.81,3.73,2.45,4.95,1.63,1.22,3.87,1.83,6.72,1.83s5.14-.64,7.29-1.93c2.16-1.28,3.71-3.18,4.69-5.68l2.5,7.5c-1.18,3.61-3.34,6.35-6.46,8.23-3.13,1.88-7.15,2.81-12.09,2.81Zm17.09-.83v-10.94l-1.04-2.4v-19.59c0-3.47-1.06-6.18-3.18-8.13-2.12-1.95-5.37-2.92-9.74-2.92-2.99,0-5.92,.47-8.81,1.41-2.88,.94-5.33,2.21-7.35,3.8l-5.83-11.35c3.05-2.16,6.73-3.82,11.05-5,4.31-1.18,8.68-1.77,13.13-1.77,8.54,0,15.17,2.02,19.9,6.04,4.73,4.03,7.08,10.31,7.08,18.86v31.99h-15.21Z"/></g><g><path class="cls-1" d="M238.48,239.75c-1.65,0-3.07-.3-4.27-.9-1.2-.6-2.13-1.51-2.78-2.72-.65-1.21-.97-2.72-.97-4.51v-11.22h1.84v11.08c0,2.16,.55,3.8,1.65,4.93,1.11,1.13,2.66,1.69,4.67,1.69,1.44,0,2.7-.31,3.75-.92,1.06-.61,1.86-1.48,2.43-2.59,.57-1.12,.85-2.44,.85-3.96v-10.23h1.84v19.21h-1.76v-5.34l.25,.63c-.57,1.49-1.5,2.68-2.82,3.55-1.31,.87-2.87,1.3-4.69,1.3Z"/><path class="cls-1" d="M264.68,220.26c1.56,0,2.93,.3,4.1,.9,1.16,.6,2.07,1.51,2.72,2.72,.65,1.21,.97,2.72,.97,4.51v11.22h-1.84v-11.07c0-2.16-.55-3.8-1.64-4.93-1.09-1.13-2.61-1.7-4.58-1.7-1.49,0-2.8,.31-3.9,.92-1.11,.61-1.95,1.47-2.52,2.58-.58,1.11-.86,2.43-.86,3.97v10.23h-1.84v-19.21h1.77v5.34l-.26-.59c.59-1.53,1.56-2.72,2.91-3.59,1.35-.86,3-1.3,4.97-1.3Z"/><path class="cls-1" d="M280.98,215.73c-.42,0-.78-.15-1.07-.44-.29-.29-.44-.64-.44-1.03,0-.42,.15-.78,.44-1.07,.29-.29,.65-.44,1.07-.44s.8,.14,1.09,.42c.28,.29,.42,.64,.42,1.05s-.14,.78-.42,1.07c-.29,.29-.65,.44-1.09,.44Zm-.92,23.88v-19.21h1.84v19.21h-1.84Z"/><path class="cls-1" d="M297.06,239.75c-1.79,0-3.4-.41-4.84-1.23-1.43-.83-2.57-1.97-3.4-3.44-.83-1.48-1.25-3.17-1.25-5.08s.42-3.64,1.25-5.09c.83-1.46,1.97-2.6,3.4-3.42,1.44-.82,3.05-1.23,4.84-1.23,1.69,0,3.22,.39,4.58,1.18,1.37,.79,2.44,1.9,3.24,3.35,.79,1.44,1.2,3.19,1.2,5.22s-.39,3.72-1.18,5.19c-.79,1.47-1.86,2.6-3.22,3.38-1.36,.79-2.9,1.18-4.62,1.18Zm.11-1.65c1.47,0,2.79-.34,3.95-1.01,1.17-.67,2.09-1.63,2.76-2.85,.67-1.23,1.02-2.64,1.02-4.24s-.34-3.03-1.02-4.25c-.67-1.21-1.59-2.16-2.76-2.84-1.16-.67-2.48-1.01-3.95-1.01s-2.79,.34-3.96,1.01c-1.17,.68-2.09,1.62-2.76,2.84-.67,1.21-1.01,2.63-1.01,4.25s.34,3.01,1.01,4.24c.67,1.22,1.59,2.17,2.76,2.85,1.16,.67,2.48,1.01,3.96,1.01Zm7.76,1.51v-6.29l.33-3.35-.36-3.35v-14.31h1.84v27.3h-1.81Z"/><path class="cls-1" d="M319.68,239.75c-1.42,0-2.66-.22-3.69-.68-1.04-.45-1.84-1.09-2.39-1.93-.55-.83-.83-1.79-.83-2.87,0-.98,.23-1.87,.68-2.66,.46-.79,1.21-1.45,2.26-1.95,1.06-.5,2.47-.75,4.24-.75h7.06v1.43h-7.03c-1.98,0-3.38,.37-4.17,1.11-.8,.74-1.2,1.65-1.2,2.76,0,1.23,.46,2.21,1.39,2.94,.93,.73,2.24,1.1,3.94,1.1s2.98-.37,4.1-1.1c1.11-.74,1.94-1.81,2.48-3.21l.52,1.25c-.52,1.4-1.39,2.51-2.63,3.33-1.23,.82-2.81,1.23-4.73,1.23Zm6.92-.15v-4.38l-.08-.66v-7.21c0-1.79-.48-3.15-1.45-4.09-.97-.93-2.39-1.39-4.25-1.39-1.32,0-2.56,.22-3.69,.68-1.14,.45-2.12,1.04-2.93,1.74l-.92-1.32c.96-.86,2.11-1.53,3.46-2s2.76-.72,4.24-.72c2.38,0,4.2,.6,5.48,1.81,1.27,1.2,1.91,2.99,1.91,5.37v12.18h-1.76Z"/><path class="cls-1" d="M343.34,239.75c-1.79,0-3.4-.41-4.84-1.23-1.43-.83-2.57-1.97-3.4-3.44-.83-1.48-1.25-3.17-1.25-5.08s.42-3.64,1.25-5.09c.83-1.46,1.97-2.6,3.4-3.42,1.44-.82,3.05-1.23,4.84-1.23,1.69,0,3.22,.39,4.58,1.18,1.37,.79,2.44,1.9,3.24,3.35,.79,1.44,1.2,3.19,1.2,5.22s-.39,3.72-1.18,5.19c-.79,1.47-1.86,2.6-3.22,3.38-1.36,.79-2.9,1.18-4.62,1.18Zm.11-1.65c1.47,0,2.79-.34,3.95-1.01,1.17-.67,2.09-1.63,2.76-2.85,.67-1.23,1.02-2.64,1.02-4.24s-.34-3.03-1.02-4.25c-.67-1.21-1.59-2.16-2.76-2.84-1.16-.67-2.48-1.01-3.95-1.01s-2.79,.34-3.96,1.01c-1.17,.68-2.09,1.62-2.76,2.84-.67,1.21-1.01,2.63-1.01,4.25s.34,3.01,1.01,4.24c.67,1.22,1.59,2.17,2.76,2.85,1.16,.67,2.48,1.01,3.96,1.01Zm7.76,1.51v-6.29l.33-3.35-.36-3.35v-14.31h1.84v27.3h-1.81Z"/><path class="cls-1" d="M368.58,239.75c-1.94,0-3.65-.41-5.13-1.25-1.49-.83-2.65-1.99-3.5-3.46-.85-1.48-1.27-3.15-1.27-5.04s.4-3.6,1.2-5.06c.79-1.46,1.89-2.61,3.29-3.44s2.97-1.25,4.71-1.25,3.31,.41,4.69,1.21c1.38,.81,2.47,1.95,3.27,3.4,.8,1.46,1.2,3.15,1.2,5.06,0,.07,0,.15-.02,.24-.01,.09-.02,.18-.02,.28h-16.96v-1.44h15.97l-.74,.7c.03-1.49-.29-2.84-.94-4.03-.65-1.19-1.53-2.12-2.63-2.79-1.11-.67-2.38-1.01-3.83-1.01s-2.69,.34-3.81,1.01c-1.11,.67-1.99,1.6-2.63,2.79-.64,1.2-.95,2.55-.95,4.07v.33c0,1.57,.35,2.96,1.05,4.17,.7,1.21,1.66,2.16,2.89,2.84,1.23,.67,2.63,1.01,4.2,1.01,1.22,0,2.37-.22,3.44-.66,1.06-.45,1.97-1.12,2.7-2.02l1.07,1.21c-.84,1.03-1.88,1.81-3.15,2.33-1.27,.53-2.63,.79-4.1,.79Z"/><path class="cls-1" d="M399.6,239.75c-1.79,0-3.4-.41-4.84-1.23-1.43-.83-2.57-1.97-3.4-3.44-.83-1.48-1.25-3.17-1.25-5.08s.42-3.64,1.25-5.09c.83-1.46,1.97-2.6,3.4-3.42,1.44-.82,3.05-1.23,4.84-1.23,1.69,0,3.22,.39,4.58,1.18,1.37,.79,2.44,1.9,3.24,3.35,.79,1.44,1.2,3.19,1.2,5.22s-.39,3.72-1.18,5.19c-.79,1.47-1.86,2.6-3.22,3.38-1.36,.79-2.9,1.18-4.62,1.18Zm.11-1.65c1.47,0,2.79-.34,3.95-1.01,1.17-.67,2.09-1.63,2.76-2.85,.67-1.23,1.02-2.64,1.02-4.24s-.34-3.03-1.02-4.25c-.67-1.21-1.59-2.16-2.76-2.84-1.16-.67-2.48-1.01-3.95-1.01s-2.79,.34-3.96,1.01c-1.17,.68-2.09,1.62-2.76,2.84-.67,1.21-1.01,2.63-1.01,4.25s.34,3.01,1.01,4.24c.67,1.22,1.59,2.17,2.76,2.85,1.16,.67,2.48,1.01,3.96,1.01Zm7.76,1.51v-6.29l.33-3.35-.36-3.35v-14.31h1.84v27.3h-1.81Z"/><path class="cls-1" d="M424.84,239.75c-1.94,0-3.65-.41-5.13-1.25-1.49-.83-2.65-1.99-3.5-3.46-.85-1.48-1.27-3.15-1.27-5.04s.4-3.6,1.2-5.06c.79-1.46,1.89-2.61,3.29-3.44s2.97-1.25,4.71-1.25,3.31,.41,4.69,1.21c1.38,.81,2.47,1.95,3.27,3.4,.8,1.46,1.2,3.15,1.2,5.06,0,.07,0,.15-.02,.24-.01,.09-.02,.18-.02,.28h-16.96v-1.44h15.97l-.74,.7c.03-1.49-.29-2.84-.94-4.03-.65-1.19-1.53-2.12-2.63-2.79-1.11-.67-2.38-1.01-3.83-1.01s-2.69,.34-3.81,1.01c-1.11,.67-1.99,1.6-2.63,2.79-.64,1.2-.95,2.55-.95,4.07v.33c0,1.57,.35,2.96,1.05,4.17,.7,1.21,1.66,2.16,2.89,2.84,1.23,.67,2.63,1.01,4.2,1.01,1.22,0,2.37-.22,3.44-.66,1.06-.45,1.97-1.12,2.7-2.02l1.07,1.21c-.84,1.03-1.88,1.81-3.15,2.33-1.27,.53-2.63,.79-4.1,.79Z"/><path class="cls-1" d="M453.31,239.75c-1.6,0-3.08-.23-4.47-.7-1.39-.46-2.46-1.05-3.22-1.76l.85-1.48c.74,.64,1.72,1.18,2.94,1.64,1.23,.45,2.55,.68,3.97,.68,2.01,0,3.45-.33,4.34-.99,.88-.67,1.33-1.53,1.33-2.61,0-.79-.23-1.41-.69-1.86-.45-.46-1.06-.81-1.82-1.05-.76-.25-1.6-.45-2.5-.61-.91-.16-1.82-.34-2.72-.53-.91-.19-1.74-.48-2.51-.85-.76-.37-1.37-.88-1.82-1.53-.46-.65-.68-1.51-.68-2.59,0-.98,.27-1.86,.81-2.65,.54-.79,1.35-1.42,2.43-1.9s2.43-.72,4.04-.72c1.2,0,2.41,.17,3.62,.52,1.21,.34,2.2,.79,2.96,1.36l-.85,1.48c-.81-.62-1.72-1.06-2.72-1.33-1.01-.27-2.03-.4-3.06-.4-1.86,0-3.23,.34-4.1,1.03-.87,.69-1.3,1.55-1.3,2.58,0,.81,.23,1.45,.68,1.93,.45,.48,1.06,.85,1.82,1.11,.76,.25,1.6,.46,2.51,.62,.9,.16,1.81,.34,2.72,.53,.91,.2,1.74,.47,2.5,.83,.76,.36,1.37,.85,1.83,1.48,.45,.62,.68,1.46,.68,2.52s-.29,1.98-.86,2.76c-.58,.78-1.43,1.4-2.56,1.84-1.13,.45-2.52,.66-4.16,.66Z"/><path class="cls-1" d="M471.23,239.75c-1.42,0-2.66-.22-3.69-.68-1.04-.45-1.84-1.09-2.39-1.93-.55-.83-.83-1.79-.83-2.87,0-.98,.23-1.87,.68-2.66,.46-.79,1.21-1.45,2.26-1.95s2.47-.75,4.24-.75h7.06v1.43h-7.03c-1.98,0-3.38,.37-4.17,1.11-.8,.74-1.2,1.65-1.2,2.76,0,1.23,.46,2.21,1.39,2.94,.93,.73,2.24,1.1,3.94,1.1s2.98-.37,4.1-1.1c1.11-.74,1.94-1.81,2.48-3.21l.52,1.25c-.52,1.4-1.39,2.51-2.63,3.33-1.23,.82-2.81,1.23-4.73,1.23Zm6.92-.15v-4.38l-.08-.66v-7.21c0-1.79-.48-3.15-1.45-4.09-.97-.93-2.39-1.39-4.25-1.39-1.32,0-2.56,.22-3.69,.68-1.14,.45-2.12,1.04-2.93,1.74l-.92-1.32c.96-.86,2.11-1.53,3.46-2,1.35-.48,2.76-.72,4.24-.72,2.38,0,4.2,.6,5.48,1.81,1.27,1.2,1.91,2.99,1.91,5.37v12.18h-1.76Z"/><path class="cls-1" d="M495.29,239.75c-1.65,0-3.07-.3-4.27-.9-1.2-.6-2.13-1.51-2.78-2.72-.65-1.21-.97-2.72-.97-4.51v-11.22h1.84v11.08c0,2.16,.55,3.8,1.65,4.93,1.11,1.13,2.66,1.69,4.67,1.69,1.44,0,2.7-.31,3.75-.92,1.06-.61,1.86-1.48,2.43-2.59,.57-1.12,.85-2.44,.85-3.96v-10.23h1.84v19.21h-1.76v-5.34l.25,.63c-.57,1.49-1.5,2.68-2.82,3.55-1.31,.87-2.87,1.3-4.69,1.3Zm-1.58-22.48l5.11-4.34h2.65l-5.78,4.34h-1.98Z"/><path class="cls-1" d="M519.5,239.75c-1.79,0-3.4-.41-4.84-1.23-1.43-.83-2.57-1.97-3.4-3.44-.83-1.48-1.25-3.17-1.25-5.08s.42-3.64,1.25-5.09c.83-1.46,1.97-2.6,3.4-3.42,1.44-.82,3.05-1.23,4.84-1.23,1.69,0,3.22,.39,4.58,1.18,1.37,.79,2.44,1.9,3.24,3.35,.79,1.44,1.2,3.19,1.2,5.22s-.39,3.72-1.18,5.19c-.79,1.47-1.86,2.6-3.22,3.38-1.36,.79-2.9,1.18-4.62,1.18Zm.11-1.65c1.47,0,2.79-.34,3.95-1.01,1.17-.67,2.09-1.63,2.76-2.85,.67-1.23,1.02-2.64,1.02-4.24s-.34-3.03-1.02-4.25c-.67-1.21-1.59-2.16-2.76-2.84-1.16-.67-2.48-1.01-3.95-1.01s-2.79,.34-3.96,1.01c-1.17,.68-2.09,1.62-2.76,2.84-.67,1.21-1.01,2.63-1.01,4.25s.34,3.01,1.01,4.24c.67,1.22,1.59,2.17,2.76,2.85,1.16,.67,2.48,1.01,3.96,1.01Zm7.76,1.51v-6.29l.33-3.35-.36-3.35v-14.31h1.84v27.3h-1.81Z"/><path class="cls-1" d="M544.74,239.75c-1.94,0-3.65-.41-5.13-1.25-1.49-.83-2.65-1.99-3.5-3.46-.85-1.48-1.27-3.15-1.27-5.04s.4-3.6,1.2-5.06c.79-1.46,1.89-2.61,3.29-3.44,1.4-.83,2.97-1.25,4.71-1.25s3.31,.41,4.69,1.21c1.38,.81,2.47,1.95,3.27,3.4,.8,1.46,1.2,3.15,1.2,5.06,0,.07,0,.15-.02,.24-.01,.09-.02,.18-.02,.28h-16.96v-1.44h15.97l-.74,.7c.03-1.49-.29-2.84-.94-4.03-.65-1.19-1.53-2.12-2.63-2.79-1.11-.67-2.38-1.01-3.83-1.01s-2.69,.34-3.81,1.01c-1.11,.67-1.99,1.6-2.63,2.79-.64,1.2-.95,2.55-.95,4.07v.33c0,1.57,.35,2.96,1.05,4.17,.7,1.21,1.66,2.16,2.89,2.84,1.23,.67,2.63,1.01,4.2,1.01,1.22,0,2.37-.22,3.44-.66,1.06-.45,1.97-1.12,2.7-2.02l1.07,1.21c-.84,1.03-1.88,1.81-3.15,2.33-1.27,.53-2.63,.79-4.1,.79Z"/><path class="cls-1" d="M565.19,221.99v-1.58h11.48v1.58h-11.48Zm3.53,17.62v-22.15c0-1.59,.46-2.87,1.38-3.84,.92-.97,2.24-1.46,3.96-1.46,.71,0,1.41,.11,2.1,.31,.69,.21,1.25,.52,1.69,.94l-.74,1.4c-.37-.37-.81-.64-1.32-.81-.52-.17-1.07-.25-1.65-.25-1.18,0-2.07,.32-2.69,.97-.61,.66-.92,1.62-.92,2.89v3.24l.03,.88v17.88h-1.84Z"/><path class="cls-1" d="M585.25,239.75c-1.42,0-2.66-.22-3.69-.68-1.04-.45-1.84-1.09-2.39-1.93-.55-.83-.83-1.79-.83-2.87,0-.98,.23-1.87,.68-2.66,.46-.79,1.21-1.45,2.26-1.95,1.06-.5,2.47-.75,4.24-.75h7.06v1.43h-7.03c-1.98,0-3.38,.37-4.17,1.11-.8,.74-1.2,1.65-1.2,2.76,0,1.23,.46,2.21,1.39,2.94,.93,.73,2.24,1.1,3.94,1.1s2.98-.37,4.1-1.1c1.11-.74,1.94-1.81,2.48-3.21l.52,1.25c-.52,1.4-1.39,2.51-2.63,3.33-1.23,.82-2.81,1.23-4.73,1.23Zm6.92-.15v-4.38l-.08-.66v-7.21c0-1.79-.48-3.15-1.45-4.09-.97-.93-2.39-1.39-4.25-1.39-1.32,0-2.56,.22-3.69,.68-1.14,.45-2.12,1.04-2.93,1.74l-.92-1.32c.96-.86,2.11-1.53,3.46-2s2.76-.72,4.24-.72c2.38,0,4.2,.6,5.48,1.81,1.27,1.2,1.91,2.99,1.91,5.37v12.18h-1.76Z"/><path class="cls-1" d="M625.42,220.26c1.55,0,2.89,.3,4.03,.9,1.14,.6,2.04,1.51,2.67,2.72s.95,2.72,.95,4.51v11.22h-1.84v-11.07c0-2.16-.53-3.8-1.58-4.93-1.06-1.13-2.52-1.7-4.41-1.7-1.45,0-2.7,.31-3.75,.92s-1.86,1.47-2.43,2.58c-.57,1.11-.85,2.43-.85,3.97v10.23h-1.84v-11.07c0-2.16-.53-3.8-1.58-4.93-1.06-1.13-2.52-1.7-4.41-1.7-1.45,0-2.7,.31-3.76,.92-1.05,.61-1.86,1.47-2.42,2.58-.57,1.11-.85,2.43-.85,3.97v10.23h-1.84v-19.21h1.77v5.3l-.26-.59c.57-1.49,1.51-2.68,2.84-3.55,1.32-.86,2.92-1.3,4.78-1.3s3.53,.48,4.84,1.46c1.31,.97,2.14,2.41,2.48,4.32l-.62-.25c.52-1.64,1.48-2.98,2.91-3.99,1.42-1.02,3.15-1.53,5.19-1.53Z"/><path class="cls-1" d="M641.58,215.73c-.42,0-.78-.15-1.07-.44s-.44-.64-.44-1.03c0-.42,.15-.78,.44-1.07s.65-.44,1.07-.44,.8,.14,1.09,.42c.28,.29,.42,.64,.42,1.05s-.14,.78-.42,1.07c-.29,.29-.65,.44-1.09,.44Zm-.92,23.88v-19.21h1.84v19.21h-1.84Z"/><path class="cls-1" d="M650.26,239.61v-27.3h1.84v27.3h-1.84Z"/><path class="cls-1" d="M660.78,215.73c-.42,0-.78-.15-1.07-.44s-.44-.64-.44-1.03c0-.42,.15-.78,.44-1.07s.65-.44,1.07-.44,.8,.14,1.09,.42c.28,.29,.42,.64,.42,1.05s-.14,.78-.42,1.07c-.29,.29-.65,.44-1.09,.44Zm-.92,23.88v-19.21h1.84v19.21h-1.84Z"/><path class="cls-1" d="M674.65,239.75c-1.42,0-2.66-.22-3.69-.68-1.04-.45-1.84-1.09-2.39-1.93-.55-.83-.83-1.79-.83-2.87,0-.98,.23-1.87,.68-2.66,.46-.79,1.21-1.45,2.26-1.95,1.06-.5,2.47-.75,4.24-.75h7.06v1.43h-7.03c-1.98,0-3.38,.37-4.17,1.11-.8,.74-1.2,1.65-1.2,2.76,0,1.23,.46,2.21,1.39,2.94,.93,.73,2.24,1.1,3.94,1.1s2.98-.37,4.1-1.1c1.11-.74,1.94-1.81,2.48-3.21l.52,1.25c-.52,1.4-1.39,2.51-2.63,3.33-1.23,.82-2.81,1.23-4.73,1.23Zm6.92-.15v-4.38l-.08-.66v-7.21c0-1.79-.48-3.15-1.45-4.09-.97-.93-2.39-1.39-4.25-1.39-1.32,0-2.56,.22-3.69,.68-1.14,.45-2.12,1.04-2.93,1.74l-.92-1.32c.96-.86,2.11-1.53,3.46-2s2.76-.72,4.24-.72c2.38,0,4.2,.6,5.48,1.81,1.27,1.2,1.91,2.99,1.91,5.37v12.18h-1.76Z"/><path class="cls-1" d="M690.91,239.61v-19.21h1.77v5.27l-.18-.59c.54-1.55,1.45-2.73,2.72-3.57,1.28-.83,2.87-1.25,4.78-1.25v1.81c-.07,0-.15,0-.22-.02-.08-.01-.15-.02-.22-.02-2.14,0-3.8,.67-5,2-1.2,1.34-1.8,3.19-1.8,5.58v10h-1.84Z"/></g></g><g><path class="cls-1" d="M154.23,46.89c13.45,0,24.38-10.52,24.38-23.44S167.68,0,154.23,0s-24.38,10.52-24.38,23.44,10.94,23.44,24.38,23.44Zm0-35.85c7.36,0,13.35,5.57,13.35,12.41s-5.99,12.41-13.35,12.41-13.35-5.57-13.35-12.41,5.99-12.41,13.35-12.41Z"/><path class="cls-1" d="M89.62,46.89c13.44,0,24.38-10.52,24.38-23.44S103.06,0,89.62,0s-24.38,10.52-24.38,23.44,10.94,23.44,24.38,23.44Zm0-35.85c7.36,0,13.35,5.57,13.35,12.41s-5.99,12.41-13.35,12.41-13.35-5.57-13.35-12.41,5.99-12.41,13.35-12.41Z"/><path class="cls-1" d="M180.29,165.59c.01-1.24,0-2.48,0-3.73h0V64.07c0-4.2-1.78-6.55-3.27-7.77-3.54-2.91-8.05-2.01-11.67-1.29-.62,.12-1.26,.25-1.91,.37-20.98,3.64-35.17,13.6-42.53,29.64-5.21-14.66-16.35-27.49-39.69-31.54-5.29-.91-47.82-.3-75.29-.09l-5.94,.05,.55,98.56v.96h0c0,.51,0,1.03,.01,1.54,0,.03,0,.07,0,.1v.67h.03c1.18,52.81,42.7,98.63,89.9,98.63s86.2-36.71,89.68-84.82c.06-.84,.07-1.69,.09-2.54,0-.11,.03-.22,.03-.33v-.61ZM12.52,154.98c.19-.54,.53-.96,.85-1.22,.84-.72,2-1.03,3.17-.84,15.53,2.42,51.64,12,51.64,48.7,0,.03,0,.06,0,.09,0,.06,0,.12,0,.18,0,3.28,2.66,5.94,5.94,5.94s5.94-2.66,5.94-5.94c0-28.59,14.53-44.06,45.74-48.7,.86-.13,1.7-.27,2.53-.41,.66-.11,1.46-.25,2.21-.36v78.54c-11.64,7.04-25.29,11.06-40.04,11.06-40.97,0-76.95-40.44-77.98-87.04Zm129.89,67.12v-71.94c0-4.02-1.74-6.34-3.2-7.57-3.66-3.09-8.35-2.28-12.88-1.51-.74,.13-1.5,.26-2.27,.37-25.85,3.84-42.79,14.92-50.69,32.99-9.46-17.27-28.58-29.14-55-33.26-2.03-.31-4.05-.21-5.99,.22l-.4-76.18c45.61-.34,62.42-.6,67.22-.04,23.99,4.16,34.22,19.3,34.22,50.62,0,3.28,2.66,5.94,5.94,5.94,.27,0,.52-.04,.78-.08,.26,.03,.51,.08,.78,.08,3.28,0,5.94-2.66,5.94-5.94,0-28.67,12.27-44.15,38.62-48.72,.74-.13,1.48-.28,2.2-.42,.23-.04,.48-.1,.75-.14v95.7c0,1.61-.05,3.21-.14,4.79-1.3,22.13-10.97,41.56-25.87,55.1Z"/><path class="cls-1" d="M26.57,46.89c13.45,0,24.38-10.52,24.38-23.44S40.01,0,26.57,0,2.19,10.52,2.19,23.44s10.94,23.44,24.38,23.44Zm0-35.85c7.36,0,13.35,5.57,13.35,12.41s-5.99,12.41-13.35,12.41-13.35-5.57-13.35-12.41,5.99-12.41,13.35-12.41Z"/><path class="cls-1" d="M106.08,99.57c-1.87-7.04-7.22-12.46-14.33-14.5-7.39-2.13-15.14-.28-20.73,4.94l-9.9,9.25-8.92-8.55c-5.47-5.24-13.42-7.21-20.77-5.13-7.16,2.03-12.53,7.48-14.37,14.57-1.1,4.22-.86,8.56,.68,12.54,.74,1.92,1.96,3.66,3.53,5.04l29.3,25.82c3.24,2.85,7.26,4.27,11.28,4.27s8.28-1.51,11.54-4.51l27.97-25.69c2.4-2.2,4.06-4.92,4.81-7.85,.83-3.29,.8-6.82-.1-10.2Zm-10.61,7.49c-.21,.83-.77,1.69-1.57,2.43l-27.98,25.7c-2.27,2.08-5.73,2.12-8.04,.08l-29.31-25.82c-.24-.21-.42-.46-.52-.73-.71-1.84-.81-3.79-.3-5.78,.86-3.31,3.3-5.75,6.7-6.72,3.64-1.03,7.42-.1,10.11,2.47l9.42,9.03c3.95,3.79,10.19,3.84,14.19,.09l10.4-9.72c2.72-2.54,6.5-3.44,10.13-2.4,3.39,.97,5.83,3.42,6.7,6.71,.42,1.59,.45,3.16,.07,4.66Z"/></g></svg>